<mxfile host="app.diagrams.net" modified="2023-07-10T18:52:27.196Z" agent="Mozilla/5.0 (X11; Linux x86_64) AppleWebKit/537.36 (KHTML, like Gecko) Chrome/116.0.0.0 Safari/537.36 Edg/116.0.0.0" version="21.6.1" etag="QvKgST1nurQIjUAKe_4g" type="github">
  <diagram name="Page-1" id="9DfXimpBzufKI1x1p8ZF">
    <mxGraphModel>
      <root>
        <mxCell id="0" />
        <mxCell id="1" parent="0" />
      </root>
    </mxGraphModel>
  </diagram>
</mxfile>
